<svg xmlns="http://www.w3.org/2000/svg" viewBox="0 0 460.5 459.54"><defs><style>.cls-1{fill:#c6c6c6;}.cls-2,.cls-4{fill:none;stroke:#c6c6c6;stroke-miterlimit:10;}.cls-3{fill:#c6a663;}.cls-4{stroke-width:2px;}</style></defs><title>logo</title><g id="Calque_2" data-name="Calque 2"><path class="cls-1" d="M291.46,397.72c-.68.11-1.38.16-2,.31a8.13,8.13,0,0,0-6.15,10,8.48,8.48,0,0,0,10,5.84,8.24,8.24,0,0,0,6.57-7.53A8.36,8.36,0,0,0,291.46,397.72Zm.06,12.87a4.59,4.59,0,1,1,4.67-4.7A4.61,4.61,0,0,1,291.52,410.59Z" transform="translate(-54.94 -145.19)"/><path class="cls-1" d="M228.31,391.64s4.26,25.23,24.31,28l73.05.53s23.63.32,29.88-28.56Z" transform="translate(-54.94 -145.19)"/><path class="cls-1" d="M252.92,421.59s-6.34.75-6.23,8.52,6.55,7.89,6.55,7.89l75.29.25s7.16.11,7.16-8.14-7.16-8.52-7.16-8.52Z" transform="translate(-54.94 -145.19)"/><path class="cls-1" d="M369.6,447.17h0C369.55,447.11,369.57,447.11,369.6,447.17Z" transform="translate(-54.94 -145.19)"/><path class="cls-1" d="M186.51,520.2c14.71-14.52,33.77-19.68,55.22-9.86A117.07,117.07,0,0,0,271,519.61a57,57,0,0,0,23.82-1.68c12.35-3.44,24.22-8.61,36.26-13.16,8.78-3.32,17.72-6.31,26.12-10.44a30.52,30.52,0,0,0,10.8-9.74c3.48-4.95,5.77-10.76,8.46-16.25,5.11-10.38,10.14-20.81,15.17-31.17-4.41,3.06-8.45,5.88-12.48,8.66l1.45-2.2c.63-1,1.28-1.95,2-3,1.37-2.08,2.89-4.37,4.69-7.08L369.6,447.17a6.23,6.23,0,0,1,.31,2,5.13,5.13,0,0,1-.85,3.28C357.73,464,350.15,479.09,333.72,486c-12,5.05-23,12.71-33.66,20.32-7.73,5.5-15.5,8.54-24.64,6.22-13.34-3.42-26.73-6.83-39.74-11.29-12.16-4.17-40.21,7.17-49.17,15Zm191.94-62.84-14.26,23.23c-2.63,3.71-6.25,7.65-10.29,9.21a197.52,197.52,0,0,1-36.31,10c4.27-2.42,8.26-5.94,12.86-7.08,18.6-4.65,27-20.33,37.83-33.5,3.42-4.19,6.86-8.35,10.26-12.54C378.68,450.34,379.88,454.5,378.45,457.36Z" transform="translate(-54.94 -145.19)"/><path class="cls-1" d="M187,521.38c-.77-14.92-23.76-47-13.16-54.91,12.49-9.26.38.24,11.52-10.51,21.49-20.72,38.55-25.32,66.13-13.5,9.77,4.19,19.14,4.5,29.17,3.76,10.83-.8,21.72-1.65,32.55-1.29a29.62,29.62,0,0,1,15.42,5c4.92,3.49,7.94,2.31,11.63-.87,6.61-5.69,13.27-11.31,19.9-16.95L358.33,430l9,8.54C353.09,436,348.56,447,342.09,454.4c-2.17,2.49-1.81,7.18-2.61,10.86l2.18,1.16c-2.14.62-5,.55-6.32,2-18.37,20.29-42.35,10.4-64.11,12-12.8.93-25.71,1.79-38.47,1.07-10.13-.58-20.11-3.61-30.16-5.55l.54-1.16h103.6c-1.78-6.85-3.33-12.85-4.88-18.85,4.17,12.53,6.65,15.24,16.91,16,6.54.49,11.86-1.11,13.32-8.39,1.22-6.05-4.58-14.64-11-14.72-12.3-.15-24.75,0-36.89,1.77-10.58,1.54-7.31,10.7-7,17.74-.47-.23-1.26-.39-1.32-.69-2.09-11.25-9-15.92-20.19-18-9.56-1.77-18.25-8-27.8-10.12-13.41-2.94-24.2,2.38-32.94,13.45-4.71,6-10.74,15.31-12.65,21.07Z" transform="translate(-54.94 -145.19)"/><path class="cls-2" d="M328.24,450.86s23.24-20.16,26.07-29.25c0,0,1.62-6.27,11.72-5.86,0,0-9.92,13.55-9.2,19.2l-16.55,14.1S335.72,457.49,328.24,450.86Z" transform="translate(-54.94 -145.19)"/><path class="cls-2" d="M369.56,447.19s25-16.69,26.58-28.21-8.69-8.89-8.69-8.89c-13.13,4-29.1,23.49-29.1,23.49s8.34.72,9,5" transform="translate(-54.94 -145.19)"/><path class="cls-2" d="M366,415.75s15.56-16.37,21.63-6.87c0,0,9.49-6.47,14.75,5.05,0,0,4,5.89-18.19,33.26" transform="translate(-54.94 -145.19)"/><path class="cls-3" d="M300,314c.37,34.72,26.62,32.14,26.62,32.14-4.36-2.55-4.9-13.75-4.9-13.75,24.92,25.78,14.7,38.71,14.7,38.71-10.29,17.33-1.79,14.19-1.79,14.19,11.83-5.24,16.44-11.46,20.84-19.8,7.36-13.93-12.52-47.87-12.52-47.87-1.47,17.39-3.72,22.19-5,23.49a.86.86,0,0,1-1.39-.26C335,338,330.7,327.12,342.37,311c11.48-15.9-5.75-34-9.63-35.72-.41-.18.28,1,.92,3.12,4.13,13.55-3.39,19.68-3.39,19.68-17.95,14-16.76,27.79-16.76,27.79s-1-19.59,5.45-31c8.15-14.33,6.53-26.17,6.53-26.17-1.78-30.33-39.56-42.18-39.56-42.18,14.52,23.66,1.38,37-.53,38.76-.17.16-.33.32-.49.5-12.69,14.28-13.86,43.12-13.86,43.12-10.71-8.27-6.53-37.15-6.53-37.15,4.57-27.52-21.78-22.41-21.78-22.41,16.86,25.47,0,37.69,0,37.69-22.39,23.83,0,49.91,0,49.91-12.53,3.06-15.24-17.82-15.24-17.82-12.52,57.55,32.66,68.19,32.66,68.19-21.23-21.44-18-34.07-18-34.07,8.71,14.77,23.2,10.36,23.2,10.36-19-23.67-11.22-59.25-11.22-59.25,22.24,24.41,31.2,21.79,31.2,21.79-7.18-37.65,21.46-57.85,21.46-57.85S299.79,297.59,300,314Z" transform="translate(-54.94 -145.19)"/><path class="cls-3" d="M296.32,362c.13,11.77,9,10.89,9,10.89-1.48-.86-1.66-4.65-1.66-4.65,8.44,8.73,5,13.11,5,13.11-3.49,5.87-.61,4.81-.61,4.81a13.14,13.14,0,0,0,7.07-6.71c2.49-4.72-4.25-16.22-4.25-16.22-.49,5.89-1.26,7.52-1.69,8a.3.3,0,0,1-.48-.09c-.5-.94-2-4.64,2-10.11s-1.95-11.53-3.26-12.1c-.14-.06.09.35.31,1.06,1.4,4.58-1.15,6.66-1.15,6.66-6.08,4.76-5.68,9.42-5.68,9.42s-.34-6.64,1.85-10.5a15.29,15.29,0,0,0,2.21-8.86c-.6-10.28-13.4-14.29-13.4-14.29,4.92,8,.47,12.54-.18,13.13l-.17.17c-4.3,4.84-4.69,14.61-4.69,14.61-3.63-2.81-2.22-12.59-2.22-12.59,1.55-9.32-7.38-7.59-7.38-7.59,5.72,8.63,0,12.77,0,12.77-7.58,8.07,0,16.91,0,16.91-4.24,1-5.16-6-5.16-6-4.24,19.5,11.07,23.1,11.07,23.1-7.19-7.26-6.09-11.54-6.09-11.54a7,7,0,0,0,7.86,3.51c-6.42-8-3.8-20.07-3.8-20.07,7.54,8.26,10.57,7.38,10.57,7.38a19.94,19.94,0,0,1,7.27-19.6S296.26,356.43,296.32,362Z" transform="translate(-54.94 -145.19)"/><path class="cls-4" d="M64.17,371.32c0-64.42,6.21-74.88,106.28-117.22,76.82-32.51,58.93-107.91,118.86-107.91,61.19,0,87.77,7.86,123.88,118.37,18.17,55.63,101.25,43.62,101.25,106.76,0,64.61-9.66,74.8-115.53,121.5C322.56,526.51,349,596.45,289.31,596.45c-61.33,0-86.21-43.47-113.67-93.24C136.23,431.77,64.17,434.33,64.17,371.32" transform="translate(-54.94 -145.19)"/><path class="cls-4" d="M83.82,491.93C53,435.35,53.49,423.19,121.16,338.18c52-65.27.21-123,52.85-151.59,53.75-29.24,80.86-35,165.39,44.79,42.54,40.18,109.78-10.07,140,45.4,30.87,56.76,27.25,70.33-43.43,161.94-51,66.07,5.7,114.87-46.76,143.41-53.88,29.3-96.51,3-144.41-27.6-68.75-43.92-130.83-7.25-160.93-62.6" transform="translate(-54.94 -145.19)"/><path class="cls-4" d="M134.69,206.82c50-40.64,62-42.42,158,8.5,73.69,39.1,120.91-22.35,158.71,24.14,38.61,47.48,49.28,73.07-13.69,170.8-31.69,49.2,30,106.07-18.95,145.91-50.13,40.76-64.13,39.69-167.16-13-74.3-38-111.87,26.68-149.55-19.66-38.69-47.58-20.65-94.31.64-147,30.56-75.65-16.88-129.95,32-169.7" transform="translate(-54.94 -145.19)"/><path class="cls-4" d="M470.16,498.82c-34.62,54.32-45.48,59.81-152.62,41.73-82.26-13.87-107.7,59.33-158.23,27.13-51.61-32.89-69.8-53.81-40.85-166.41,14.57-56.68-61.95-91.19-28-144.44,34.73-54.49,48.35-57.89,162.73-40.38,82.48,12.63,97.75-60.58,148.12-28.48,51.72,33,49.34,83,45.74,139.72-5.16,81.42,57,118,23.12,171.13" transform="translate(-54.94 -145.19)"/><path class="cls-4" d="M252,154.67c63.9-8.09,75.06-3.25,129.64,90.71,41.9,72.14,114.46,44.92,122,104.37,7.69,60.7,3.23,88.06-101.88,137.76-52.9,25-30.55,105.93-93.19,113.86-64.1,8.11-75.42-.19-135-99.35-43-71.52-109.07-36.47-116.58-95.73-7.7-60.84,32.31-91,78.23-124.47C201,233.75,189.46,162.58,252,154.67" transform="translate(-54.94 -145.19)"/><path class="cls-4" d="M69.72,294.26c22-60.52,31.45-68.23,140-73.78,83.31-4.27,92.29-81.24,148.6-60.74,57.5,20.94,79.79,37.42,75.91,153.62-2,58.49,80.21,75.62,58.61,135-22.1,60.71-34.67,67-150.13,74.65-83.26,5.53-82.32,80.31-138.44,59.87-57.63-21-66.13-70.34-74.9-126.5-12.59-80.6-81.18-102.86-59.62-162.07" transform="translate(-54.94 -145.19)"/></g></svg>